<svg version="1.1" id="Calque_1" xmlns="http://www.w3.org/2000/svg" xmlns:xlink="http://www.w3.org/1999/xlink" x="0px" y="0px"
	 viewBox="0 0 100 72" style="enable-background:new 0 0 100 72;" xml:space="preserve">
<g transform="translate(-9,0)">
	<path fill="none" d="M75.2,34.1c-3.2,0-5.7,2.6-5.7,5.9c0,3.3,2.6,5.9,5.8,5.9c3.1,0,5.5-2.6,5.5-5.9
		C80.8,36.7,78.3,34.1,75.2,34.1z"/>
	<path fill="none" d="M28.5,36.3c0-5.5-2.9-9-7.6-9H18c-0.5,0-0.6,0-1.1-0.1c0.1,0.5,0.1,0.6,0.1,1.1v15.4c0,0.5,0,0.6-0.1,1.1
		c0.5-0.1,0.6-0.1,1.1-0.1h3.7C25.9,44.6,28.5,41.4,28.5,36.3z"/>
	<path fill="none" d="M51.3,37.1c1.6,0,2,0,3.4,0.1c-1.1-2.5-2.8-3.7-5.3-3.7c-2.6,0-4.6,1.3-5.3,3.7c1.3-0.1,1.6-0.1,3-0.1H51.3z"
		/>
	<path d="M36.2,36.2c0-9.5-6-16-14.7-16H9.1v31.6h13.6C30.3,51.8,36.2,45,36.2,36.2z M18,44.6c-0.5,0-0.6,0-1.1,0.1
		c0.1-0.5,0.1-0.6,0.1-1.1V28.3c0-0.5,0-0.6-0.1-1.1c0.5,0.1,0.6,0.1,1.1,0.1h2.9c4.7,0,7.6,3.4,7.6,9c0,5.1-2.6,8.3-6.9,8.3H18z"/>
	<path d="M49.7,52.5c5.4,0,9.7-3.1,11.2-7.9h-7.1c-1.4,1.4-2.4,1.9-4.4,1.9c-3.2,0-5-1.4-5.6-4.4c0.9,0.1,1.2,0.1,2.3,0.1h15.6
		c0-4.8-0.5-7.2-2-9.4c-2.3-3.5-6-5.5-10.2-5.5c-6.9,0-12.3,5.5-12.3,12.7C37.1,47.1,42.5,52.5,49.7,52.5z M49.5,33.5
		c2.5,0,4.2,1.2,5.3,3.7c-1.5-0.1-1.8-0.1-3.4-0.1h-4.2c-1.5,0-1.7,0-3,0.1C44.9,34.9,46.8,33.5,49.5,33.5z"/>
	<path d="M80.6,25.5c0,2.3,0,2.8,0.3,5l-0.2,0c-2.1-2-4-2.8-6.6-2.8c-6.6,0-11.9,5.5-11.9,12.3c0,7,5.2,12.3,12,12.3
		c2.8,0,4.6-0.7,6.5-2.7l0.2,0c-0.2,0.6-0.3,0.9-0.3,1.2v0.9h6.9V20.2h-6.9V25.5z M75.2,45.9c-3.2,0-5.8-2.6-5.8-5.9
		c0-3.3,2.5-5.9,5.7-5.9c3.1,0,5.6,2.6,5.6,5.9C80.8,43.3,78.3,45.9,75.2,45.9z"/>
	<rect x="89.8" y="27.8" width="6.9" height="24"/>
	<rect x="89.8" y="20.2" width="6.9" height="5.4"/>
	<path fill="#FE2E52" d="M104.5,52.3c2.5,0,4.5-2,4.5-4.5c0-2.5-2-4.5-4.5-4.5c-2.5,0-4.5,2-4.5,4.5C100,50.3,102,52.3,104.5,52.3z"/>
</g>
</svg>
